PathFileType	4	(X/Y/Z)	pose_F01_0-96.trc
DataRate	CameraRate	NumFrames	NumMarkers	Units	OrigDataRate	OrigDataStartFrame	OrigNumFrames
30	30	7	21	m	30	36	96
Frame#	Time	CHip			RHip			RKnee			RAnkle			RBigToe			RSmallToe			RHeel			LHip			LKnee			LAnkle			LBigToe			LSmallToe			LHeel			Neck			Nose			RShoulder			RElbow			RWrist			LShoulder			LElbow			LWrist			
		X1	Y1	Z1	X2	Y2	Z2	X3	Y3	Z3	X4	Y4	Z4	X5	Y5	Z5	X6	Y6	Z6	X7	Y7	Z7	X8	Y8	Z8	X9	Y9	Z9	X10	Y10	Z10	X11	Y11	Z11	X12	Y12	Z12	X13	Y13	Z13	X14	Y14	Z14	X15	Y15	Z15	X16	Y16	Z16	X17	Y17	Z17	X18	Y18	Z18	X19	Y19	Z19	X20	Y20	Z20	X21	Y21	Z21	
36	1.2	-0.1338630422837896	1.8784232417887787	-0.5174646419581406	-0.14119937754264475	1.8749952211767886	-0.44709568192072824	-0.14784827512300242	1.7345481490911632	-0.41341056673376647	-0.13355861551008777	1.6051159956608312	-0.36661384551887394							-0.1252800477672779	1.5954660769122166	-0.3705164971539648	-0.12108999746277775	1.8839119953182675	-0.5718835584747395	-0.11616701960376918	1.7389173379696352	-0.5618941345338566	-0.09480066082890069	1.6017118765377667	-0.5576551461532644	-0.1299899127293461	1.5724399123231916	-0.5678181012972772	-0.11756052525171688	1.5760792217804949	-0.58975432248702	-0.08334206896552701	1.5918927095064501	-0.5423819381816478	-0.11858423105546043	2.029479750224528	-0.49904455110618495	-0.1493074536759618	2.082704266570435	-0.4658002607261874	-0.12889841068327018	2.0197250044744837	-0.41323883019310537	-0.17808537928619092	1.9730522198567169	-0.38230160386795103	-0.1927458739396426	2.028704115694773	-0.37891118195183765	-0.10830724486487607	2.042002366001866	-0.5830387384512798	-0.10015910593529698	1.9699267608437443	-0.6279934783572522	-0.11683349310341745	1.8991717849921903	-0.6423230130136995
37	1.2333333333333334	-0.13223395989303488	1.881361155367274	-0.5206290429499539	-0.1415577875931625	1.876826833874788	-0.4566113177038312	-0.14630109260436028	1.7348492763374237	-0.41533818111412496	-0.136360916508961	1.6051436197812157	-0.3677655583966533							-0.1263159021948366	1.5956379835633927	-0.3738688752830946	-0.12213706346284757	1.8855440953595648	-0.5755455699802704	-0.11369521970632772	1.7392317512235598	-0.560572555139992	-0.0942902481984706	1.6041702219633398	-0.558777882820168	-0.1301741941686243	1.5712036784349808	-0.5672914512808832	-0.11515702111527373	1.5773144186526131	-0.592610660702908	-0.08314228282449417	1.5933779316494396	-0.5429502762057029	-0.11656333586526943	2.0295431352393214	-0.5012891119472163	-0.14726439875955322	2.0845536541485776	-0.4676395744372766	-0.1269067492636261	2.0176360543893606	-0.41425223161943603	-0.17988505550057482	1.9734363810553948	-0.37999278517475515	-0.18834901281538896	2.0316297390848277	-0.36977648109418093	-0.10543551755362743	2.0420014295327698	-0.5823365558388447	-0.10075891702784931	1.9714282156452512	-0.6311690178969036	-0.11730551299814689	1.9030439821343919	-0.6459477228433618
38	1.2666666666666666	-0.1302215009079195	1.8788593767552395	-0.5224888359759091	-0.13873753140225553	1.8742411650841033	-0.45514717131345334	-0.14611086772010493	1.7335295916335545	-0.41530073089162195	-0.13366485432591937	1.6082205785128538	-0.36690015845989954							-0.12745404605913582	1.5993804732811616	-0.36859401018079624	-0.11741082805510487	1.881938488198741	-0.5764866073672266	-0.11223466888505347	1.7407102857450667	-0.5665534221363816	-0.09475556156051007	1.6016675124291158	-0.5575855233098415	-0.12998127153561229	1.5724266697451434	-0.5678660865970603	-0.11837648570399578	1.5758683020609194	-0.592952980325399	-0.08265220468774206	1.5904856131508953	-0.5384626373489809	-0.11734362828384118	2.030629062935496	-0.5045985226720346	-0.14531642492945598	2.0845326149705685	-0.4697884142540747	-0.12887486398714013	2.0198174979868293	-0.4219884032430572	-0.18168473171495875	1.9738205422540724	-0.3776839664815593	-0.18395215169113532	2.034555362474882	-0.3606417802365242	-0.10411243404166134	2.043387130483119	-0.5876784688071369	-0.0986370583284706	1.9713969335137609	-0.633634883725451	-0.11515642130715868	1.9031566674098943	-0.648451567859671
39	1.3	-0.12821049898193423	1.8763049434381391	-0.524357740995723	-0.13865900895552596	1.871650757712913	-0.45474319496162663	-0.14786912139238245	1.7346510349885658	-0.41341882159331544	-0.13356067060952445	1.608094353175525	-0.36686431960086735							-0.12431308189222373	1.5985947380627135	-0.367370224702563	-0.11519000178760272	1.8806149816376965	-0.578595534104513	-0.10955312007012147	1.7422949001126595	-0.5697550366449388	-0.09446989970478951	1.6028920842811534	-0.5581938292302425	-0.12914809358432458	1.5726267784668821	-0.5645373974863788	-0.11777569058244212	1.5775541350525932	-0.5894773946653153	-0.08325726869956125	1.5918013316147275	-0.5423058673089077	-0.11544699763364326	2.0305652376437875	-0.5069753507807289	-0.14341963514815168	2.0835142046381603	-0.47216670461140015	-0.12977120841952372	2.0217547508531912	-0.4259939268450348	-2.2117759100514576	1.9139879667213442	2.0501555038701644	-0.17824011389472305	2.0455867481187546	-0.3549372472753147	-0.10287342924474129	2.043668031970633	-0.5931085548738803	-0.0964642499120964	1.9714290556403222	-0.6360062485809977	-0.11561322035171023	1.8999512115468682	-0.648155814430726
40	1.3333333333333333	-0.1252748444852388	1.8762724820623633	-0.5234968815628471	-0.13362755244366026	1.8716549520089554	-0.4557901881774601	-0.14958177789262717	1.7370337970775356	-0.41184023811878945	-0.13351391239357058	1.6106339018727662	-0.36720413301636784							-0.12438959174908842	1.6017415798669752	-0.36767960406636574	-0.11295380230430158	1.8807700995818717	-0.5809094556753919	-0.10927514970001248	1.740789250049707	-0.5697421193446951	-0.09219559206745855	1.6043399200553135	-0.5611740247355633	-0.12697407222051196	1.572574883586578	-0.5668019416987112	-0.11508674289018316	1.5771707084599096	-0.592631854064233	-0.08398566667427697	1.5935796036811944	-0.5463651292554249	-0.11824714569765228	2.0307551170858225	-0.5078278620071677	-0.14258361585460264	2.0830147898060303	-0.46897291889970316	-0.1296896396582456	2.021625408688963	-0.42533961371150364	-0.1770733461221475	1.9819901127533095	-0.34832569924684037	-0.17184439739577223	2.04719926934482	-0.3359976231821745	-0.10585766255580249	2.0437136003186778	-0.5945439080204579	-0.09434039735202983	1.9715172311155555	-0.6383568395181811	-0.11117701443784499	1.9009456663478432	-0.6530186407050012
41	1.3666666666666667	-0.12512649215060925	1.8788377192620136	-0.5239237898021982	-0.13373577850743545	1.8742889455254925	-0.4563924710517043	-0.1573615217907634	1.7390865686736054	-0.40305390356969667	-0.13135981383018244	1.615128714110748	-0.3517621645055419							-0.1258854388502894	1.6127860228973192	-0.3534017638594042	-0.11091527806196558	1.8823576649534242	-0.5834535426032156	-0.10979078386243589	1.7420959796128404	-0.5693771467635207	-0.0924569189274054	1.603049320847769	-0.5606264096225012	-0.1291495946151345	1.5697901002257881	-0.5641451852902514	-0.11826506969631784	1.5747979846276612	-0.5932768774458838	-0.08238076514396842	1.5910037996792012	-0.5475238590388576	-0.11862753130421834	2.0307218077928493	-0.49964692036849234	-0.14362477957350728	2.083566312576182	-0.4548722409437938	-0.1308619054043438	2.021348042242881	-0.4203414639567048	-2.2501179262054802	1.9191009734151763	2.130267902365254	-0.1680949262516834	2.0489843679575	-0.33207285939414166	-0.10556724239396174	2.042041705520765	-0.5827614238666667	-0.09578715749525273	1.9700689729163532	-0.6328413539442623	-0.10702962208861574	1.8989939385569088	-0.6576145366609151
42	1.4	-0.1256992736023072	1.8785452294477714	-0.5150830065377687	-0.1350905569266914	1.8744153047046768	-0.45080127705268097	-0.16017740385694726	1.738293805422237	-0.3949485715888968	-0.13135981383018244	1.615128714110748	-0.3517621645055419							-0.12805484373209097	1.6195679412892852	-0.342707848426471	-0.11433886509553329	1.8820623475584322	-0.575589477398443	-0.1088357218849832	1.7431875644369648	-0.5664279546964407	-0.09245686887675277	1.6030544832318134	-0.5605844522921362	-0.12935376598212808	1.571128739125211	-0.5638491608443811	-0.11732233410411246	1.5745926973683464	-0.5899519811373606	-0.08216226087395276	1.5922940338186635	-0.5481009417620925	-0.1237574126372724	2.028259127794336	-0.48889142960603826	-0.14657087560571283	2.082676488715141	-0.4387360271627687	-0.13486002343110182	2.0190909353850275	-0.40700941706216714	-0.18638187975902273	1.9885794826735477	-0.33098784908467205	-0.17175039097655737	2.043329073465115	-0.3176712457512023	-0.1102017903516963	2.0391929926664814	-0.5690244528422447	-0.09665218561512672	1.969526411242574	-0.6148601419499938	-0.1025657582225899	1.9016631408180358	-0.6625785021773962
